<svg width="609" height="1124" viewBox="0 0 609 1124" fill="none" xmlns="http://www.w3.org/2000/svg">
<g clip-path="url(#clip0_3796_1430)">
<rect y="1" width="609" height="1111" fill="#0389FF"/>
<rect x="-500" y="516.149" width="749.744" height="1279.65" transform="rotate(-45 -500 516.149)" fill="#0B8CFE"/>
<rect x="-500.294" y="611.706" width="556.784" height="1213.81" transform="rotate(-45 -500.294 611.706)" fill="#0E8EFF"/>
<rect x="-308" y="825.274" width="320" height="730.685" transform="rotate(-45 -308 825.274)" fill="#1290FF"/>
<path d="M144.398 576.086H141.773V554.898H144.398V576.086ZM138.07 557.148C138.07 560.516 137.309 563.473 135.785 566.02C134.262 568.559 131.734 570.664 128.203 572.336L126.844 570.25C129.57 568.953 131.621 567.402 132.996 565.598C134.379 563.785 135.188 561.656 135.422 559.211H127.922V557.148H138.07ZM158.288 555.977C158.288 556.773 158.592 557.551 159.202 558.309C159.819 559.066 160.682 559.719 161.791 560.266C162.909 560.812 164.178 561.18 165.6 561.367L164.616 563.406C162.866 563.141 161.319 562.633 159.975 561.883C158.639 561.125 157.631 560.195 156.952 559.094C156.272 560.195 155.26 561.125 153.916 561.883C152.573 562.633 151.03 563.141 149.288 563.406L148.303 561.367C149.725 561.18 150.991 560.812 152.1 560.266C153.209 559.719 154.069 559.066 154.678 558.309C155.295 557.551 155.608 556.773 155.616 555.977V555.18H158.288V555.977ZM166.608 566.781H158.217V569.078H164.241V576.086H161.639V571.141H149.428V569.078H155.639V566.781H147.295V564.695H166.608V566.781ZM175.458 559.984C175.45 561.25 175.649 562.492 176.055 563.711C176.47 564.922 177.067 566.008 177.848 566.969C178.63 567.93 179.552 568.664 180.614 569.172L179.02 571.258C177.895 570.688 176.919 569.875 176.091 568.82C175.27 567.766 174.63 566.547 174.169 565.164C173.692 566.641 173.02 567.945 172.153 569.078C171.294 570.203 170.27 571.062 169.083 571.656L167.489 569.57C168.591 569.047 169.544 568.285 170.348 567.285C171.161 566.277 171.778 565.141 172.2 563.875C172.63 562.602 172.848 561.305 172.856 559.984V556.609H175.458V559.984ZM184.481 563.195H187.739V565.422H184.481V576.086H181.88V554.898H184.481V563.195ZM194.808 556.211C195.886 556.211 196.862 556.43 197.737 556.867C198.612 557.297 199.3 557.902 199.8 558.684C200.308 559.457 200.566 560.336 200.573 561.32C200.566 562.172 200.374 562.945 199.999 563.641C199.624 564.336 199.101 564.914 198.429 565.375C197.765 565.836 197.003 566.148 196.144 566.312V569.43C198.058 569.344 199.784 569.195 201.323 568.984L201.511 570.93C198.55 571.461 194.925 571.727 190.636 571.727C190.136 571.727 189.777 571.719 189.558 571.703H188.597L188.222 569.57C190.503 569.57 192.277 569.555 193.542 569.523V566.324C192.659 566.176 191.878 565.871 191.198 565.41C190.519 564.949 189.991 564.367 189.616 563.664C189.241 562.961 189.058 562.18 189.066 561.32C189.058 560.336 189.3 559.457 189.792 558.684C190.284 557.902 190.968 557.297 191.843 556.867C192.718 556.43 193.706 556.211 194.808 556.211ZM194.808 558.414C194.191 558.422 193.636 558.547 193.144 558.789C192.659 559.023 192.28 559.359 192.007 559.797C191.734 560.234 191.597 560.742 191.597 561.32C191.597 561.906 191.734 562.418 192.007 562.855C192.288 563.293 192.671 563.629 193.155 563.863C193.64 564.098 194.191 564.211 194.808 564.203C195.417 564.211 195.964 564.098 196.448 563.863C196.933 563.629 197.312 563.293 197.585 562.855C197.859 562.418 197.995 561.906 197.995 561.32C197.995 560.742 197.859 560.234 197.585 559.797C197.312 559.359 196.933 559.023 196.448 558.789C195.964 558.547 195.417 558.422 194.808 558.414ZM205.144 563.359H208.214V565.562H205.144V576.086H202.542V554.898H205.144V563.359ZM227.203 559H214.641V556.938H219.633V554.805H222.234V556.938H227.203V559ZM220.922 559.82C221.938 559.82 222.836 559.98 223.617 560.301C224.398 560.621 225.004 561.074 225.434 561.66C225.871 562.246 226.094 562.922 226.102 563.688C226.094 564.453 225.871 565.129 225.434 565.715C225.004 566.301 224.398 566.754 223.617 567.074C222.836 567.395 221.938 567.555 220.922 567.555C219.906 567.555 219.004 567.395 218.215 567.074C217.426 566.754 216.812 566.301 216.375 565.715C215.938 565.129 215.719 564.453 215.719 563.688C215.719 562.922 215.938 562.246 216.375 561.66C216.812 561.074 217.426 560.621 218.215 560.301C219.004 559.98 219.906 559.82 220.922 559.82ZM220.922 561.789C220.102 561.789 219.449 561.957 218.965 562.293C218.488 562.629 218.25 563.094 218.25 563.688C218.25 564.281 218.488 564.742 218.965 565.07C219.449 565.398 220.102 565.555 220.922 565.539C221.742 565.555 222.395 565.398 222.879 565.07C223.371 564.742 223.617 564.281 223.617 563.688C223.617 563.094 223.371 562.629 222.879 562.293C222.395 561.957 221.742 561.789 220.922 561.789ZM231.328 560.523H234.281V562.656H231.328V568.164H228.727V554.898H231.328V560.523ZM231.328 576.086H228.727V571.234H217.219V569.148H231.328V576.086ZM241.819 558.836C241.819 559.617 241.971 560.375 242.276 561.109C242.58 561.844 243.041 562.504 243.659 563.09C244.284 563.676 245.045 564.141 245.944 564.484L244.561 566.477C243.639 566.125 242.846 565.629 242.182 564.988C241.518 564.348 240.991 563.602 240.6 562.75C240.194 563.734 239.639 564.605 238.936 565.363C238.241 566.121 237.405 566.703 236.428 567.109L235.022 565.117C235.952 564.703 236.737 564.156 237.377 563.477C238.018 562.797 238.498 562.059 238.819 561.262C239.139 560.457 239.303 559.648 239.311 558.836V556.211H241.819V558.836ZM253.327 567.906H250.842V562.398H248.733V567.25H246.295V555.32H248.733V560.266H250.842V554.922H253.327V567.906ZM246.178 568.258C247.647 568.258 248.924 568.414 250.01 568.727C251.104 569.031 251.948 569.477 252.541 570.062C253.135 570.648 253.436 571.344 253.444 572.148C253.436 572.953 253.135 573.648 252.541 574.234C251.948 574.828 251.104 575.281 250.01 575.594C248.924 575.906 247.647 576.062 246.178 576.062C244.694 576.062 243.405 575.906 242.311 575.594C241.217 575.281 240.377 574.828 239.791 574.234C239.205 573.648 238.912 572.953 238.912 572.148C238.912 571.344 239.205 570.648 239.791 570.062C240.377 569.477 241.217 569.031 242.311 568.727C243.405 568.414 244.694 568.258 246.178 568.258ZM246.178 570.227C244.702 570.227 243.553 570.395 242.733 570.73C241.92 571.059 241.514 571.531 241.514 572.148C241.514 572.773 241.92 573.25 242.733 573.578C243.545 573.906 244.694 574.07 246.178 574.07C247.647 574.07 248.787 573.906 249.6 573.578C250.412 573.25 250.819 572.773 250.819 572.148C250.819 571.531 250.409 571.059 249.588 570.73C248.776 570.395 247.639 570.227 246.178 570.227ZM265.434 555.227C267.044 555.227 268.415 555.367 269.548 555.648C270.688 555.93 271.559 556.344 272.161 556.891C272.762 557.43 273.067 558.086 273.075 558.859C273.067 560.031 272.399 560.93 271.071 561.555C269.743 562.18 267.864 562.5 265.434 562.516C262.997 562.5 261.114 562.18 259.786 561.555C258.458 560.93 257.794 560.031 257.794 558.859C257.794 558.086 258.095 557.43 258.696 556.891C259.298 556.344 260.169 555.93 261.309 555.648C262.45 555.367 263.825 555.227 265.434 555.227ZM265.434 557.148C263.825 557.148 262.602 557.297 261.766 557.594C260.93 557.883 260.52 558.305 260.536 558.859C260.528 559.438 260.934 559.867 261.755 560.148C262.575 560.43 263.802 560.57 265.434 560.57C267.091 560.57 268.329 560.43 269.149 560.148C269.97 559.867 270.38 559.438 270.38 558.859C270.38 558.305 269.962 557.883 269.126 557.594C268.29 557.297 267.059 557.148 265.434 557.148ZM275.114 565.727H255.802V563.641H275.114V565.727ZM272.7 572.336H260.653V573.906H273.286V575.898H258.098V570.484H270.145V569.078H258.075V567.156H272.7V572.336ZM299.587 569.031H296.962V554.898H299.587V569.031ZM293.845 568.422C293.837 569.281 294.107 570.094 294.654 570.859C295.209 571.617 296.005 572.27 297.045 572.816C298.084 573.355 299.298 573.727 300.689 573.93L299.658 575.992C297.986 575.711 296.529 575.195 295.287 574.445C294.045 573.695 293.107 572.77 292.474 571.668C291.826 572.762 290.877 573.684 289.627 574.434C288.377 575.184 286.916 575.703 285.244 575.992L284.212 573.93C285.603 573.727 286.818 573.355 287.857 572.816C288.904 572.27 289.705 571.617 290.259 570.859C290.822 570.094 291.103 569.281 291.103 568.422V567.883H293.845V568.422ZM288.033 556.234C289.111 556.242 290.084 556.465 290.951 556.902C291.818 557.332 292.498 557.934 292.99 558.707C293.482 559.48 293.728 560.359 293.728 561.344C293.728 562.344 293.482 563.234 292.99 564.016C292.498 564.797 291.818 565.406 290.951 565.844C290.084 566.281 289.111 566.5 288.033 566.5C286.947 566.5 285.97 566.281 285.103 565.844C284.236 565.406 283.552 564.797 283.052 564.016C282.56 563.234 282.314 562.344 282.314 561.344C282.314 560.359 282.56 559.48 283.052 558.707C283.552 557.934 284.236 557.332 285.103 556.902C285.97 556.465 286.947 556.242 288.033 556.234ZM288.033 558.461C287.416 558.461 286.865 558.578 286.38 558.812C285.904 559.047 285.529 559.383 285.255 559.82C284.99 560.25 284.861 560.758 284.869 561.344C284.861 561.938 284.99 562.457 285.255 562.902C285.529 563.34 285.904 563.68 286.38 563.922C286.865 564.156 287.416 564.273 288.033 564.273C288.642 564.273 289.185 564.156 289.662 563.922C290.138 563.68 290.509 563.34 290.775 562.902C291.041 562.457 291.173 561.938 291.173 561.344C291.173 560.758 291.041 560.25 290.775 559.82C290.509 559.383 290.138 559.047 289.662 558.812C289.185 558.578 288.642 558.461 288.033 558.461ZM319.125 562.938H322.383V565.07H319.125V576.109H316.523V554.898H319.125V562.938ZM313.312 559.023H306V568.75C307.711 568.75 309.254 568.699 310.629 568.598C312.004 568.496 313.398 568.32 314.812 568.07L315.117 570.273C313.586 570.539 312.07 570.715 310.57 570.801C309.078 570.887 307.273 570.93 305.156 570.93H303.398V556.914H313.312V559.023Z" fill="white"/>
<path d="M135.875 509.312L139.312 513.75C140.417 512.458 141.25 510.865 141.812 508.969C142.396 507.052 142.688 504.854 142.688 502.375C142.688 499.188 142.208 496.479 141.25 494.25C140.312 492.021 138.979 490.333 137.25 489.188C135.521 488.021 133.479 487.438 131.125 487.438C128.771 487.438 126.719 488.021 124.969 489.188C123.24 490.333 121.896 492.031 120.938 494.281C119.979 496.51 119.5 499.208 119.5 502.375C119.5 505.542 119.979 508.25 120.938 510.5C121.896 512.729 123.24 514.427 124.969 515.594C126.719 516.74 128.771 517.312 131.125 517.312C131.979 517.312 132.844 517.229 133.719 517.062L127.812 509.312H135.875ZM152.25 502.375C152.25 506.312 151.615 509.833 150.344 512.938C149.094 516.021 147.333 518.573 145.062 520.594L151.5 528.75H142.688L139.031 524.219C136.635 525.156 134 525.625 131.125 525.625C127.083 525.625 123.458 524.698 120.25 522.844C117.042 520.99 114.521 518.312 112.688 514.812C110.854 511.292 109.938 507.146 109.938 502.375C109.938 497.583 110.854 493.438 112.688 489.938C114.521 486.417 117.042 483.74 120.25 481.906C123.458 480.052 127.083 479.125 131.125 479.125C135.146 479.125 138.75 480.052 141.938 481.906C145.146 483.74 147.667 486.417 149.5 489.938C151.333 493.438 152.25 497.583 152.25 502.375ZM178.287 525H167.912L156.037 491.062H165.787L172.912 515.438H173.287L180.412 491.062H190.225L178.287 525ZM194.575 491.062H203.825V525H194.575V491.062ZM199.2 486.625C198.283 486.625 197.429 486.417 196.637 486C195.867 485.562 195.252 484.99 194.794 484.281C194.356 483.552 194.137 482.771 194.137 481.938C194.137 481.083 194.356 480.292 194.794 479.562C195.252 478.833 195.867 478.26 196.637 477.844C197.429 477.406 198.283 477.188 199.2 477.188C200.096 477.188 200.929 477.406 201.7 477.844C202.471 478.26 203.075 478.833 203.512 479.562C203.971 480.292 204.2 481.083 204.2 481.938C204.2 482.771 203.971 483.552 203.512 484.281C203.075 484.99 202.471 485.562 201.7 486C200.929 486.417 200.096 486.625 199.2 486.625ZM226.113 525.688C222.717 525.688 219.758 524.948 217.238 523.469C214.738 521.99 212.821 519.927 211.488 517.281C210.154 514.635 209.488 511.583 209.488 508.125C209.488 504.667 210.154 501.625 211.488 499C212.842 496.354 214.769 494.302 217.269 492.844C219.79 491.365 222.738 490.625 226.113 490.625C229.008 490.625 231.571 491.156 233.8 492.219C236.029 493.281 237.779 494.792 239.05 496.75C240.342 498.688 241.05 500.938 241.175 503.5H232.488C232.196 501.771 231.508 500.396 230.425 499.375C229.342 498.333 227.946 497.812 226.238 497.812C224.758 497.812 223.456 498.219 222.331 499.031C221.227 499.823 220.373 500.99 219.769 502.531C219.165 504.073 218.863 505.896 218.863 508C218.863 510.167 219.165 512.021 219.769 513.562C220.373 515.104 221.227 516.281 222.331 517.094C223.435 517.906 224.738 518.312 226.238 518.312C227.883 518.312 229.269 517.823 230.394 516.844C231.519 515.865 232.217 514.479 232.488 512.688H241.175C241.029 515.25 240.331 517.51 239.081 519.469C237.831 521.427 236.092 522.958 233.863 524.062C231.654 525.146 229.071 525.688 226.113 525.688ZM246.775 479.75H256.025V504.062H256.525L267.525 491.062H278.15L265.494 505.75L278.837 525H267.962L258.619 511.188L256.025 514.125V525H246.775V479.75Z" fill="white"/>
</g>
<defs>
<clipPath id="clip0_3796_1430">
<rect width="609" height="1124" fill="white"/>
</clipPath>
</defs>
</svg>
