<svg width="609" height="1124" viewBox="0 0 609 1124" fill="none" xmlns="http://www.w3.org/2000/svg">
<g clip-path="url(#clip0_3794_1416)">
<rect y="1" width="649" height="1111" fill="#0389FF"/>
<rect x="-500" y="516.149" width="749.744" height="1279.65" transform="rotate(-45 -500 516.149)" fill="#0B8CFE"/>
<rect x="-500.294" y="611.706" width="556.784" height="1213.81" transform="rotate(-45 -500.294 611.706)" fill="#0E8EFF"/>
<rect x="-308" y="825.274" width="320" height="730.685" transform="rotate(-45 -308 825.274)" fill="#1290FF"/>
<path d="M135.875 509.312L139.312 513.75C140.417 512.458 141.25 510.865 141.812 508.969C142.396 507.052 142.688 504.854 142.688 502.375C142.688 499.188 142.208 496.479 141.25 494.25C140.312 492.021 138.979 490.333 137.25 489.188C135.521 488.021 133.479 487.438 131.125 487.438C128.771 487.438 126.719 488.021 124.969 489.188C123.24 490.333 121.896 492.031 120.938 494.281C119.979 496.51 119.5 499.208 119.5 502.375C119.5 505.542 119.979 508.25 120.938 510.5C121.896 512.729 123.24 514.427 124.969 515.594C126.719 516.74 128.771 517.312 131.125 517.312C131.979 517.312 132.844 517.229 133.719 517.062L127.812 509.312H135.875ZM152.25 502.375C152.25 506.312 151.615 509.833 150.344 512.938C149.094 516.021 147.333 518.573 145.062 520.594L151.5 528.75H142.688L139.031 524.219C136.635 525.156 134 525.625 131.125 525.625C127.083 525.625 123.458 524.698 120.25 522.844C117.042 520.99 114.521 518.312 112.688 514.812C110.854 511.292 109.938 507.146 109.938 502.375C109.938 497.583 110.854 493.438 112.688 489.938C114.521 486.417 117.042 483.74 120.25 481.906C123.458 480.052 127.083 479.125 131.125 479.125C135.146 479.125 138.75 480.052 141.938 481.906C145.146 483.74 147.667 486.417 149.5 489.938C151.333 493.438 152.25 497.583 152.25 502.375ZM178.287 525H167.912L156.037 491.062H165.787L172.912 515.438H173.287L180.412 491.062H190.225L178.287 525ZM194.575 491.062H203.825V525H194.575V491.062ZM199.2 486.625C198.283 486.625 197.429 486.417 196.637 486C195.867 485.562 195.252 484.99 194.794 484.281C194.356 483.552 194.137 482.771 194.137 481.938C194.137 481.083 194.356 480.292 194.794 479.562C195.252 478.833 195.867 478.26 196.637 477.844C197.429 477.406 198.283 477.188 199.2 477.188C200.096 477.188 200.929 477.406 201.7 477.844C202.471 478.26 203.075 478.833 203.512 479.562C203.971 480.292 204.2 481.083 204.2 481.938C204.2 482.771 203.971 483.552 203.512 484.281C203.075 484.99 202.471 485.562 201.7 486C200.929 486.417 200.096 486.625 199.2 486.625ZM226.113 525.688C222.717 525.688 219.758 524.948 217.238 523.469C214.738 521.99 212.821 519.927 211.488 517.281C210.154 514.635 209.488 511.583 209.488 508.125C209.488 504.667 210.154 501.625 211.488 499C212.842 496.354 214.769 494.302 217.269 492.844C219.79 491.365 222.738 490.625 226.113 490.625C229.008 490.625 231.571 491.156 233.8 492.219C236.029 493.281 237.779 494.792 239.05 496.75C240.342 498.688 241.05 500.938 241.175 503.5H232.488C232.196 501.771 231.508 500.396 230.425 499.375C229.342 498.333 227.946 497.812 226.238 497.812C224.758 497.812 223.456 498.219 222.331 499.031C221.227 499.823 220.373 500.99 219.769 502.531C219.165 504.073 218.863 505.896 218.863 508C218.863 510.167 219.165 512.021 219.769 513.562C220.373 515.104 221.227 516.281 222.331 517.094C223.435 517.906 224.738 518.312 226.238 518.312C227.883 518.312 229.269 517.823 230.394 516.844C231.519 515.865 232.217 514.479 232.488 512.688H241.175C241.029 515.25 240.331 517.51 239.081 519.469C237.831 521.427 236.092 522.958 233.863 524.062C231.654 525.146 229.071 525.688 226.113 525.688ZM246.775 479.75H256.025V504.062H256.525L267.525 491.062H278.15L265.494 505.75L278.837 525H267.962L258.619 511.188L256.025 514.125V525H246.775V479.75Z" fill="white"/>
<path d="M197.328 598.109H194.703V576.898H197.328V598.109ZM185.914 578.445C186.977 578.445 187.922 578.754 188.75 579.371C189.586 579.98 190.242 580.852 190.719 581.984C191.195 583.109 191.438 584.422 191.445 585.922C191.438 587.43 191.195 588.75 190.719 589.883C190.25 591.016 189.598 591.891 188.762 592.508C187.926 593.117 186.977 593.422 185.914 593.422C184.844 593.422 183.891 593.117 183.055 592.508C182.219 591.891 181.562 591.016 181.086 589.883C180.617 588.75 180.383 587.43 180.383 585.922C180.383 584.422 180.617 583.109 181.086 581.984C181.562 580.852 182.219 579.98 183.055 579.371C183.891 578.754 184.844 578.445 185.914 578.445ZM185.914 580.789C185.312 580.789 184.781 580.992 184.32 581.398C183.867 581.805 183.516 582.395 183.266 583.168C183.016 583.941 182.891 584.859 182.891 585.922C182.891 586.992 183.016 587.914 183.266 588.688C183.516 589.461 183.867 590.055 184.32 590.469C184.781 590.875 185.312 591.078 185.914 591.078C186.508 591.078 187.031 590.875 187.484 590.469C187.938 590.055 188.289 589.461 188.539 588.688C188.789 587.914 188.914 586.992 188.914 585.922C188.914 584.859 188.789 583.945 188.539 583.18C188.289 582.406 187.938 581.816 187.484 581.41C187.031 580.996 186.508 580.789 185.914 580.789ZM219.608 589.18H200.295V587.094H204.795V584.41C203.991 584.066 203.37 583.629 202.932 583.098C202.502 582.566 202.288 581.961 202.288 581.281C202.288 580.445 202.596 579.727 203.213 579.125C203.838 578.516 204.725 578.051 205.873 577.73C207.03 577.41 208.381 577.25 209.928 577.25C211.475 577.25 212.823 577.41 213.971 577.73C215.12 578.051 216.002 578.516 216.62 579.125C217.245 579.727 217.561 580.445 217.569 581.281C217.561 581.969 217.338 582.578 216.901 583.109C216.471 583.641 215.85 584.074 215.038 584.41V587.094H219.608V589.18ZM209.928 590.469C211.452 590.461 212.76 590.605 213.854 590.902C214.948 591.191 215.788 591.621 216.373 592.191C216.959 592.754 217.256 593.438 217.264 594.242C217.256 595.055 216.959 595.742 216.373 596.305C215.788 596.875 214.948 597.305 213.854 597.594C212.76 597.891 211.452 598.039 209.928 598.039C208.389 598.039 207.065 597.891 205.955 597.594C204.854 597.305 204.01 596.875 203.424 596.305C202.838 595.742 202.545 595.055 202.545 594.242C202.545 593.438 202.838 592.754 203.424 592.191C204.01 591.621 204.854 591.191 205.955 590.902C207.065 590.605 208.389 590.461 209.928 590.469ZM209.928 592.438C208.373 592.438 207.194 592.59 206.389 592.895C205.584 593.199 205.186 593.648 205.194 594.242C205.186 594.836 205.584 595.289 206.389 595.602C207.202 595.914 208.381 596.07 209.928 596.07C211.444 596.07 212.608 595.914 213.42 595.602C214.241 595.289 214.655 594.836 214.663 594.242C214.655 593.648 214.245 593.199 213.432 592.895C212.62 592.59 211.452 592.438 209.928 592.438ZM209.928 579.266C208.35 579.266 207.131 579.441 206.272 579.793C205.42 580.137 204.998 580.633 205.006 581.281C204.998 581.922 205.42 582.41 206.272 582.746C207.123 583.082 208.342 583.25 209.928 583.25C211.498 583.25 212.713 583.082 213.573 582.746C214.44 582.41 214.873 581.922 214.873 581.281C214.873 580.633 214.44 580.137 213.573 579.793C212.713 579.441 211.498 579.266 209.928 579.266ZM212.436 587.094V585.078C211.647 585.188 210.811 585.242 209.928 585.242C209.045 585.242 208.209 585.188 207.42 585.078V587.094H212.436ZM240.481 581.961H237.598V584.398H240.481V586.578H237.598V589.414H234.997V576.898H237.598V579.852H240.481V581.961ZM237.598 598.086H234.997V592.438H223.489V590.328H237.598V598.086ZM226.841 578.117C227.911 578.109 228.88 578.324 229.747 578.762C230.614 579.191 231.298 579.797 231.798 580.578C232.298 581.352 232.552 582.227 232.559 583.203C232.552 584.195 232.298 585.082 231.798 585.863C231.305 586.637 230.626 587.242 229.759 587.68C228.891 588.117 227.919 588.336 226.841 588.336C225.755 588.336 224.774 588.117 223.899 587.68C223.032 587.242 222.348 586.637 221.848 585.863C221.356 585.082 221.114 584.195 221.122 583.203C221.114 582.227 221.356 581.352 221.848 580.578C222.348 579.797 223.036 579.191 223.911 578.762C224.786 578.324 225.763 578.109 226.841 578.117ZM226.841 580.32C226.231 580.328 225.684 580.453 225.2 580.695C224.716 580.93 224.337 581.266 224.063 581.703C223.798 582.133 223.669 582.633 223.677 583.203C223.669 583.789 223.798 584.305 224.063 584.75C224.337 585.195 224.716 585.535 225.2 585.77C225.684 586.004 226.231 586.117 226.841 586.109C227.442 586.117 227.981 586.004 228.458 585.77C228.942 585.535 229.321 585.195 229.595 584.75C229.868 584.305 230.005 583.789 230.005 583.203C230.005 582.633 229.868 582.133 229.595 581.703C229.321 581.266 228.942 580.93 228.458 580.695C227.981 580.453 227.442 580.328 226.841 580.32ZM253.316 579.734V580.016C253.3 581.094 253.261 582.078 253.198 582.969C253.136 583.859 253.003 584.859 252.8 585.969L250.222 585.734C250.409 584.75 250.538 583.859 250.609 583.062C250.679 582.258 250.726 581.445 250.749 580.625H242.511V578.469H253.316V579.734ZM247.972 587.527C250.48 587.418 252.644 587.234 254.464 586.977L254.605 588.852C252.652 589.203 250.612 589.438 248.487 589.555C246.37 589.664 244.034 589.727 241.48 589.742L241.245 587.656H241.667L245.394 587.609V583.297H247.972V587.527ZM258.378 583.508H261.12V585.688H258.378V592.766H255.706V576.898H258.378V583.508ZM259.058 597.664H244.409V591.359H247.034V595.555H259.058V597.664ZM278.914 587.023H268.695V578.211H278.914V587.023ZM271.273 584.984H276.336V580.273H271.273V584.984ZM285.219 588.969H282.641V576.898H285.219V588.969ZM285.664 592.18H279.617C279.703 592.742 280.035 593.293 280.613 593.832C281.199 594.371 281.996 594.84 283.004 595.238C284.012 595.637 285.164 595.898 286.461 596.023L285.57 598.016C283.891 597.844 282.414 597.449 281.141 596.832C279.875 596.215 278.91 595.453 278.246 594.547C277.582 595.453 276.609 596.211 275.328 596.82C274.047 597.43 272.555 597.828 270.852 598.016L269.961 596.023C271.266 595.914 272.426 595.664 273.441 595.273C274.457 594.883 275.258 594.414 275.844 593.867C276.438 593.312 276.773 592.75 276.852 592.18H270.828V590.211H276.922V588.359H279.547V590.211H285.664V592.18ZM311.942 598.086H309.434V587.211H307.161V597.102H304.723V577.461H307.161V585.102H309.434V576.898H311.942V598.086ZM302.919 579.57C302.919 581.586 302.677 583.438 302.192 585.125C301.708 586.812 300.887 588.379 299.731 589.824C298.575 591.27 297.028 592.547 295.091 593.656L293.591 591.852C295.778 590.586 297.407 589.117 298.477 587.445C299.555 585.773 300.192 583.844 300.387 581.656H294.575V579.57H302.919ZM331.995 592.227H329.37V576.922H331.995V592.227ZM332.581 597.664H317.98V590.68H320.605V595.555H332.581V597.664ZM320.441 578.305C321.503 578.305 322.468 578.535 323.335 578.996C324.202 579.449 324.886 580.078 325.386 580.883C325.886 581.688 326.136 582.594 326.136 583.602C326.136 584.625 325.886 585.543 325.386 586.355C324.886 587.16 324.202 587.789 323.335 588.242C322.468 588.695 321.503 588.922 320.441 588.922C319.37 588.922 318.398 588.695 317.523 588.242C316.655 587.789 315.972 587.16 315.472 586.355C314.972 585.543 314.722 584.625 314.722 583.602C314.722 582.594 314.972 581.688 315.472 580.883C315.972 580.078 316.655 579.449 317.523 578.996C318.398 578.535 319.37 578.305 320.441 578.305ZM320.441 580.578C319.839 580.578 319.296 580.703 318.812 580.953C318.327 581.203 317.948 581.559 317.675 582.02C317.402 582.48 317.269 583.008 317.277 583.602C317.269 584.211 317.402 584.746 317.675 585.207C317.948 585.668 318.327 586.023 318.812 586.273C319.296 586.523 319.839 586.648 320.441 586.648C321.027 586.648 321.558 586.523 322.034 586.273C322.511 586.023 322.886 585.668 323.159 585.207C323.441 584.746 323.581 584.211 323.581 583.602C323.581 583.008 323.441 582.48 323.159 582.02C322.886 581.559 322.511 581.203 322.034 580.953C321.558 580.703 321.027 580.578 320.441 580.578ZM352.705 598.109H350.103V587.281H346.002V585.172H350.103V576.898H352.705V598.109ZM342.673 583.625C342.666 584.703 342.869 585.773 343.283 586.836C343.697 587.898 344.302 588.863 345.099 589.73C345.896 590.59 346.837 591.258 347.923 591.734L346.517 593.727C345.337 593.227 344.31 592.48 343.435 591.488C342.56 590.496 341.88 589.348 341.396 588.043C340.92 589.426 340.244 590.645 339.369 591.699C338.502 592.754 337.478 593.547 336.298 594.078L334.892 592.062C335.962 591.578 336.888 590.887 337.67 589.988C338.451 589.09 339.045 588.086 339.451 586.977C339.865 585.867 340.072 584.75 340.072 583.625V582.523H335.525V580.438H340.095V577.344H342.697V580.438H347.127V582.523H342.673V583.625ZM373.18 598.109H370.602V576.898H373.18V598.109ZM366.664 586.695H359.375V590.961C361.164 590.945 362.805 590.883 364.297 590.773C365.797 590.664 367.328 590.477 368.891 590.211L369.125 592.344C367.445 592.641 365.793 592.84 364.168 592.941C362.543 593.043 360.672 593.094 358.555 593.094H356.703V584.633H364.016V580.859H356.68V578.75H366.664V586.695ZM391.489 589.977C392.942 589.977 394.2 590.137 395.262 590.457C396.333 590.77 397.153 591.23 397.723 591.84C398.294 592.441 398.583 593.164 398.591 594.008C398.583 594.859 398.294 595.59 397.723 596.199C397.153 596.816 396.333 597.285 395.262 597.605C394.2 597.926 392.942 598.086 391.489 598.086C390.02 598.086 388.747 597.926 387.669 597.605C386.591 597.285 385.762 596.816 385.184 596.199C384.606 595.59 384.317 594.859 384.317 594.008C384.317 593.164 384.606 592.441 385.184 591.84C385.762 591.23 386.587 590.77 387.657 590.457C388.735 590.137 390.012 589.977 391.489 589.977ZM391.489 592.016C390.02 592.016 388.891 592.188 388.102 592.531C387.313 592.867 386.919 593.359 386.919 594.008C386.919 594.664 387.313 595.164 388.102 595.508C388.899 595.852 390.028 596.023 391.489 596.023C392.95 596.023 394.067 595.852 394.841 595.508C395.622 595.164 396.012 594.664 396.012 594.008C396.012 593.359 395.622 592.867 394.841 592.531C394.067 592.188 392.95 592.016 391.489 592.016ZM398.38 581.961H401.333V584.141H398.38V589.461H395.778V576.898H398.38V581.961ZM384.973 581.094H389.919V578.234H392.497V588.125H382.395V578.234H384.973V581.094ZM389.919 586.062V583.133H384.973V586.062H389.919ZM414.823 581.211H410.3C410.308 582.008 410.515 582.777 410.921 583.52C411.327 584.254 411.925 584.906 412.714 585.477C413.503 586.047 414.448 586.477 415.55 586.766L414.331 588.805C413.113 588.469 412.054 587.957 411.155 587.27C410.265 586.582 409.566 585.762 409.058 584.809C408.566 585.848 407.87 586.75 406.972 587.516C406.073 588.273 405.003 588.836 403.761 589.203L402.542 587.211C403.628 586.883 404.558 586.41 405.331 585.793C406.105 585.176 406.691 584.473 407.089 583.684C407.488 582.887 407.691 582.062 407.698 581.211H403.175V579.148H407.698V576.828H410.323V579.148H414.823V581.211ZM419.909 589.367H417.284V576.922H419.909V589.367ZM419.909 597.828H405.847V590.328H419.909V597.828ZM408.425 595.719H417.355V592.414H408.425V595.719ZM447.734 589.133H428.398V587.047H436.789V585.031H430.766V577.859H445.391V579.898H433.367V582.969H445.508V585.031H439.344V587.047H447.734V589.133ZM438.031 590.352C439.555 590.352 440.863 590.504 441.957 590.809C443.051 591.105 443.891 591.543 444.477 592.121C445.062 592.699 445.359 593.398 445.367 594.219C445.359 595.031 445.062 595.727 444.477 596.305C443.891 596.883 443.047 597.324 441.945 597.629C440.852 597.934 439.547 598.086 438.031 598.086C436.5 598.086 435.18 597.934 434.07 597.629C432.961 597.324 432.113 596.883 431.527 596.305C430.941 595.727 430.648 595.031 430.648 594.219C430.648 593.398 430.941 592.699 431.527 592.121C432.113 591.543 432.957 591.105 434.059 590.809C435.168 590.504 436.492 590.352 438.031 590.352ZM438.031 592.344C436.484 592.344 435.305 592.504 434.492 592.824C433.688 593.145 433.289 593.609 433.297 594.219C433.289 594.828 433.688 595.289 434.492 595.602C435.297 595.914 436.477 596.07 438.031 596.07C439.555 596.07 440.723 595.914 441.535 595.602C442.348 595.289 442.758 594.828 442.766 594.219C442.758 593.609 442.344 593.145 441.523 592.824C440.711 592.504 439.547 592.344 438.031 592.344ZM455.858 578.375C456.959 578.367 457.952 578.582 458.834 579.02C459.725 579.449 460.42 580.055 460.92 580.836C461.428 581.617 461.686 582.5 461.694 583.484C461.686 584.477 461.428 585.363 460.92 586.145C460.42 586.926 459.729 587.535 458.846 587.973C457.963 588.402 456.967 588.617 455.858 588.617C454.756 588.617 453.764 588.398 452.881 587.961C451.998 587.523 451.303 586.918 450.795 586.145C450.295 585.363 450.045 584.477 450.045 583.484C450.045 582.5 450.295 581.617 450.795 580.836C451.303 580.055 451.998 579.449 452.881 579.02C453.772 578.582 454.764 578.367 455.858 578.375ZM455.858 580.625C455.241 580.625 454.686 580.742 454.194 580.977C453.702 581.211 453.315 581.547 453.034 581.984C452.76 582.414 452.623 582.914 452.623 583.484C452.623 584.062 452.76 584.57 453.034 585.008C453.315 585.438 453.702 585.77 454.194 586.004C454.686 586.23 455.241 586.344 455.858 586.344C456.483 586.344 457.041 586.23 457.534 586.004C458.034 585.77 458.424 585.438 458.705 585.008C458.995 584.57 459.139 584.062 459.139 583.484C459.139 582.914 458.995 582.414 458.705 581.984C458.424 581.547 458.034 581.211 457.534 580.977C457.041 580.742 456.483 580.625 455.858 580.625ZM466.639 598.109H464.038V576.898H466.639V598.109ZM449.084 591.547C451.678 591.547 454.1 591.504 456.35 591.418C458.608 591.324 460.748 591.133 462.772 590.844L462.983 592.742C460.889 593.148 458.76 593.406 456.596 593.516C454.44 593.625 452.045 593.68 449.413 593.68L449.084 591.547Z" fill="white"/>
<path fill-rule="evenodd" clip-rule="evenodd" d="M158.812 598.562V587.312H155.062V598.562H158.812Z" fill="white"/>
<path fill-rule="evenodd" clip-rule="evenodd" d="M155.612 599.888C156.344 600.621 157.531 600.621 158.263 599.888L162.951 595.201L160.299 592.549L156.938 595.911L153.576 592.549L150.924 595.201L155.612 599.888Z" fill="white"/>
<path fill-rule="evenodd" clip-rule="evenodd" d="M133.5 567.625C132.464 567.625 131.625 568.464 131.625 569.5V599.5C131.625 600.536 132.464 601.375 133.5 601.375H143.812V605.125H133.5C130.393 605.125 127.875 602.607 127.875 599.5V569.5C127.875 566.393 130.393 563.875 133.5 563.875H144.229C145.636 563.875 146.992 564.403 148.03 565.354L156.989 573.566C158.151 574.631 158.812 576.135 158.812 577.712V577.938H155.062V577.712C155.062 577.187 154.842 576.685 154.454 576.33L145.496 568.118C145.15 567.801 144.698 567.625 144.229 567.625H133.5Z" fill="white"/>
<path fill-rule="evenodd" clip-rule="evenodd" d="M143.812 572.312V566.688H147.562V572.312C147.562 573.348 148.402 574.188 149.438 574.188H156V577.938H149.438C146.331 577.938 143.812 575.419 143.812 572.312Z" fill="white"/>
<path fill-rule="evenodd" clip-rule="evenodd" d="M156.938 584.5C152.278 584.5 148.5 588.278 148.5 592.938C148.5 597.597 152.278 601.375 156.938 601.375C161.597 601.375 165.375 597.597 165.375 592.938C165.375 588.278 161.597 584.5 156.938 584.5ZM144.75 592.938C144.75 586.206 150.206 580.75 156.938 580.75C163.669 580.75 169.125 586.206 169.125 592.938C169.125 599.669 163.669 605.125 156.938 605.125C150.206 605.125 144.75 599.669 144.75 592.938Z" fill="white"/>
</g>
<defs>
<clipPath id="clip0_3794_1416">
<rect width="609" height="1124" fill="white"/>
</clipPath>
</defs>
</svg>
