<svg width="150" height="73" viewBox="0 0 150 73" fill="none" xmlns="http://www.w3.org/2000/svg">
<path fill-rule="evenodd" clip-rule="evenodd" d="M16.4198 51.5353C25.3139 58.775 39.853 55.6403 48.8938 44.5337C57.9345 33.427 58.0533 18.5543 49.1591 11.3145C40.2649 4.07476 25.7258 7.20948 16.6851 18.3161C7.6444 29.4228 7.52561 44.2955 16.4198 51.5353ZM24.1187 49.6118C30.7562 55.0146 41.6063 52.6753 48.3531 44.3867C55.0999 36.0982 55.1885 24.9992 48.5511 19.5963C41.9136 14.1935 31.0636 16.5329 24.3168 24.8214C17.57 33.11 17.4813 44.209 24.1187 49.6118Z" fill="url(#paint0_linear_3680_1291)"/>
<path d="M51.0935 34.5176C51.4819 33.7904 50.6822 33.0789 50.0018 33.5445C47.5268 35.2376 45.1801 36.7127 42.8754 37.0867C42.7633 37.1049 42.6476 37.0954 42.5388 37.0628C39.2592 36.08 37.1031 34.9327 34.5785 33.3547C33.8393 32.8928 32.9092 33.8154 33.3481 34.5685C35.4494 38.1741 37.3196 41.9789 37.5383 42.2747C37.7792 42.6005 37.2597 44.8509 34.407 49.1067C33.933 49.8137 34.708 50.7143 35.4692 50.3336C37.7203 49.2077 40.1416 48.2813 43.3973 48.3343C43.5275 48.3364 43.6579 48.3732 43.7712 48.4375C48.5925 51.1767 51.8803 53.6539 55.4254 56.5647C56.1788 57.1832 57.1415 56.2123 56.5286 55.4544C53.5243 51.7389 51.1644 48.3098 48.8215 43.2999C48.7837 43.219 48.759 43.1301 48.751 43.0412C48.4579 39.7658 49.6885 37.1489 51.0935 34.5176Z" fill="url(#paint1_linear_3680_1291)"/>
<path d="M82.311 33.6963L75.0063 54.9072H67.4673L60.2017 33.6963H67.1157L71.1392 48.4229H71.3735L75.3579 33.6963H82.311ZM88.0501 54.9072V33.6963H94.6517V54.9072H88.0501ZM91.3704 31.1572C89.4954 31.1572 87.972 29.751 87.972 27.9932C87.972 26.2354 89.4954 24.8291 91.3704 24.8291C93.2454 24.8291 94.8079 26.2354 94.8079 27.9932C94.8079 29.751 93.2454 31.1572 91.3704 31.1572ZM111.914 55.2979C105.234 55.2979 101.25 50.8447 101.25 44.3604C101.25 37.876 105.274 33.4229 111.914 33.4229C117.734 33.4229 121.524 36.7822 121.68 41.9385H115.547C115.234 39.79 113.984 38.4229 111.992 38.4229C109.57 38.4229 107.969 40.4932 107.969 44.2822C107.969 48.1104 109.531 50.1807 111.992 50.1807C113.867 50.1807 115.274 48.9697 115.547 46.7041H121.68C121.484 51.8604 117.813 55.2979 111.914 55.2979ZM128.278 54.9072V26.626H134.88V41.3916H135.153L141.286 33.6963H148.786L141.169 42.915L149.099 54.9072H141.481L136.286 46.7822L134.88 48.4229V54.9072H128.278Z" fill="url(#paint2_linear_3680_1291)"/>
<defs>
<linearGradient id="paint0_linear_3680_1291" x1="49.159" y1="11.3146" x2="16.4197" y2="51.5353" gradientUnits="userSpaceOnUse">
<stop stop-color="#0389FF"/>
<stop offset="1" stop-color="#05EEA9"/>
</linearGradient>
<linearGradient id="paint1_linear_3680_1291" x1="43.9173" y1="30.6639" x2="30.6276" y2="48.4792" gradientUnits="userSpaceOnUse">
<stop stop-color="#0389FF"/>
<stop offset="1" stop-color="#05EEA9"/>
</linearGradient>
<linearGradient id="paint2_linear_3680_1291" x1="104.772" y1="16.9072" x2="104.772" y2="64.9072" gradientUnits="userSpaceOnUse">
<stop stop-color="#0389FF"/>
<stop offset="1" stop-color="#07EEA9"/>
</linearGradient>
</defs>
</svg>
